<svg xmlns="http://www.w3.org/2000/svg" viewBox="0 0 377.022 278.511" width="377.022px" height="278.511px">
  <defs>
    <style>
      .b{fill:#1dc591}.c{fill:#fff}
    </style>
  </defs>
  <path d="M40.633 114.501A189.493 189.493 0 0125.5 127.434C-7.412 152.623-3.14 198.943 8.816 233.835c33.024 96.372 106.991-12 193.849 33.245 58 30.212 143.242-2.642 171.883-61.289 16.837-34.477-56.967-61.2-79.311-74.979-41.778-25.757-85.092-57.285-105.905-103.323-19.4-42.909-50.742-29.631-76.529-.651-25.948 29.16-44.329 61.292-72.17 87.664" fill="#f7f7f7" fill-rule="evenodd"/>
  <g transform="translate(146 8.489)">
    <path class="b" d="M9.602 64.24a2.545 2.545 0 01-1.246-.331 5.4 5.4 0 01-2.293-3.988c-.157-1.718 3.876-16.2 5.179-17.68.248-.286.516-.571.784-.857a8.951 8.951 0 002.049-2.8 7.23 7.23 0 012.627-3.018l1.391-.9-.287 1.627c-.1.556-2.416 13.63-3.754 17.23-.845 2.286-.577 3.459-.344 3.958a2.3 2.3 0 00.115.213 86.46 86.46 0 001.372-3.383c1.479-3.809 8.493-21.123 11.849-29.439.871-2.145 1.46-3.6 1.594-3.931.164-.408.524-1.352.982-2.556 1.72-4.526 3.459-9.013 4.013-10l1.238.686c-.551.995-2.669 6.515-3.915 9.815-.463 1.211-.826 2.164-.99 2.575l-1.59 3.925C25.008 33.7 18.002 51.002 16.527 54.808c-1.884 4.849-3.2 7.882-5.638 9.108a2.844 2.844 0 01-1.287.324zm6.448-26.2a3.217 3.217 0 00-.612.99 9.96 9.96 0 01-2.355 3.318c-.26.274-.516.549-.764.823-.91 1.067-4.969 15.047-4.831 16.621a4.037 4.037 0 001.556 2.88 1.188 1.188 0 001.2-.019 7.448 7.448 0 002.943-3.589 2.778 2.778 0 01-.764-1c-.4-.857-.673-2.427.3-5.048s2.603-11.084 3.33-14.977z"/>
    <path class="b" d="M38.54 236.895c-31.561 0-37.643-14.182-37.891-14.799l-.05-.122v-.133c0-1.143-.933-112.619-.47-129.277.424-15.215 5.198-20.142 7.236-22.244.241-.248.44-.453.589-.636.382-.446 1.223-1.284 2.412-2.442 3.325-3.253 9.518-9.31 9.938-12.03.589-3.68-1.4-9.665-1.426-9.722l1.38-.442c.084.259 2.125 6.373 1.479 10.4-.474 2.937-5.378 7.943-10.362 12.819-1.113 1.082-1.988 1.938-2.294 2.327-.168.2-.382.438-.669.72-1.915 1.985-6.429 6.635-6.838 21.302-.482 16.339.405 124.371.443 129.072.631 1.3 7.465 13.794 36.523 13.794 28.614 0 39.317-9.276 40.758-10.666L84.45 92.249c0-.175 1.292-12.316-5.149-19.782-1.693-1.966-3.582-3.851-5.409-5.676-5.435-5.432-10.569-10.56-8.791-16.2 2.011-6.442 1.013-6.941.05-7.421l-.531-.263.164-.568a12.808 12.808 0 000-6.594c-1.147-3.459-1.938-14.232-2.068-16.712-.141-2.689-.573-10.872-5.351-14.442-3.949-2.948-13.16-2.182-19.253-1.672-1.261.1-2.45.2-3.44.255l-.075-1.413c.952-.038 2.141-.137 3.39-.232C44.672.961 53.831.2 58.211 3.472c5.3 3.966 5.764 12.647 5.913 15.5.172 3.288.971 13.268 2 16.339a13.6 13.6 0 01.145 6.884c1.46.9 2.152 2.48.172 8.83-1.506 4.823 3.111 9.436 8.459 14.781 1.842 1.844 3.75 3.748 5.481 5.752 6.85 7.939 5.542 20.285 5.485 20.807l-5.169 133.037-.172.19c-.421.457-10.577 11.303-41.985 11.303z"/>
    <path class="b" d="M20.639 44.053l-.657-1.257c.248-.126 6.192-3.139 20.748-3.139 13.883 0 19.643.811 24.9 2.209l-.363 1.364c-4.281-1.143-9.38-2.156-24.536-2.156-14.148 0-20.034 2.949-20.092 2.979zM41.922 33.147c-.631 0-1.032-.034-1.1-.038-4.293-.377-8.337-1.1-10.511-5.676-1.33-2.781-1.147-6.552.474-10.084 1.678-3.63 4.507-6.3 7.564-7.135 8.547-2.309 14.563 1.093 16.73 5.486a12.288 12.288 0 01-2.6 13.794c-3.402 3.273-8.367 3.653-10.557 3.653zm-.975-1.448c.08 0 6.628.533 10.554-3.234a10.816 10.816 0 002.293-12.152c-2.641-5.333-9.671-6.206-15.083-4.743-2.622.709-5.168 3.147-6.651 6.366-1.452 3.154-1.632 6.476-.482 8.884 1.888 3.916 5.214 4.514 9.369 4.891z"/>
    <path class="b" d="M34.113 31.483c-2.549-2.587-3.184-9.478-1.8-12.731 1.644-3.867 5.141-6.579 8.581-9.028l.826 1.143c-3.276 2.339-6.6 4.91-8.088 8.438-1.2 2.8-.623 9.044 1.491 11.177z"/>
    <path class="b" d="M43.05 14.017c-2.874 0-5.328-.107-5.539-.118l.065-1.413c.1 0 10.607.461 13.657-.488l.424 1.341c-1.727.547-5.408.678-8.607.678zM54.387 11.902a2.486 2.486 0 01-2.225-1.23l1.227-.716a1.091 1.091 0 001.219.533 3.147 3.147 0 002.42-1.9 1.2 1.2 0 00-.482-1.341c-2.255-1.87-3.8-.152-3.861-.08l-1.084-.942c.864-.99 3.192-2.286 5.841-.08a2.578 2.578 0 01.936 2.827 4.508 4.508 0 01-3.612 2.9 2.757 2.757 0 01-.379.029zM2.387 223.657s-1.625 3.211 1.953 6.594 17.621 9.748 38.652 9.748 34.608-8.952 36.2-9.946 0-4.19 0-4.19-10.011 10.327-38.235 10.327-37.473-8.381-38.57-12.533zM24.007 10.088a1.639 1.639 0 01-.562-1.619c.271-1.036 1.6-1.737 4.17-2.217l.26 1.39c-2.855.53-3.058 1.177-3.058 1.185a1.05 1.05 0 00.1.175z"/>
    <path class="b" d="M57.476 8.058a156.929 156.929 0 00-17.8-1.1c-2.19 0-4.174.027-5.913.107l-.065-1.413c1.762-.08 3.78-.118 5.982-.11a158.822 158.822 0 0117.984 1.12zM65.763 48.594c-.084-.023-8.352-2.316-22.988-2.316s-22.17 2.286-22.25 2.312l-.424-1.349c.313-.1 7.805-2.377 22.674-2.377s23.034 2.286 23.374 2.373zM57.498 9.833a151.057 151.057 0 00-24.731-.3l-.1-1.413a152.212 152.212 0 0124.964.316zM13.217 41.852a1.729 1.729 0 01-1.426-.8c-.589-.945-.325-2.457.8-4.628 2.072-4 10.5-20.571 12.037-23.6-.688-.693-1.735-1.973-1.349-3.048.252-.7.994-1.086 2.2-1.143.321 0 .715-.038 1.177-.072l.1 1.409c-.478.038-.891.065-1.231.076-.764.027-.914.2-.917.2-.057.24.558 1.143 1.365 1.874l.409.362-.248.484c-.1.2-10.007 19.687-12.281 24.08-1.223 2.362-.933 3.1-.86 3.223a.3.3 0 00.237.145v1.413z"/>
    <path class="b" d="M16.351 43.536a1.332 1.332 0 01-1.005-.434l1.089-.91a.218.218 0 00-.088-.072s.65 0 1.884-2.107a78.891 78.891 0 004.77-10.388c.539-1.337 1.074-2.667 1.628-3.962a1019.37 1019.37 0 005.821-13.8c.176-.415.443-.952.764-1.573 1.372-2.728 3.673-7.3 1.353-8.826a.261.261 0 00-.271 0c-2.129.762-5.974 10.16-7.561 15.036l-1.349-.438c.038-.16 4.8-14.678 8.436-15.95a1.668 1.668 0 011.531.171c3.364 2.221.711 7.493-.864 10.644-.3.594-.558 1.112-.715 1.478a1262.676 1262.676 0 01-5.829 13.813 190.309 190.309 0 00-1.613 3.931A81.857 81.857 0 0119.47 40.72c-1.055 1.809-2.03 2.728-2.97 2.808z"/>
    <path class="b" d="M26.584 22.313c-2.626-2.286-4.5-1.87-4.514-1.863l-.355-1.371c.1-.027 2.572-.625 5.8 2.164zM27.631 114.288v2.522c0 .651 10.7.907 11.712.785 4.273-.51 7.331-2.9 7.847-7.284h-2.676a25.3 25.3 0 01-1.1 2.72c-1.754 2.4-5.351 1.364-7.943 1.524l.264-4.244h-3.062v4.091zM32.688 118.25h2.676c-.868 0 0 5.954.2 6.5a4.477 4.477 0 005.829 2.362c2.209-1.029 2.676-3.688 2.756-5.878.065-1.524 0-2.72 0-2.72h2.725c.1 0 .1 3.284.092 3.592-.164 4.011-2.626 8.145-7.155 8.145a7.555 7.555 0 01-6.272-3.5c-1.698-2.619-1.218-5.601-.851-8.501zM46.593 131.58v2.785l-11.578-.264c-.157 2.015-.141 4.267 1.586 5.634 1.571 1.238 3.746.93 5.619.93h3.823l.069 2.853a32.6 32.6 0 01-3.662.053 14.978 14.978 0 01-5.967-.88c-3.215-1.413-4.48-4.75-4.48-8.061a16.684 16.684 0 01.313-3.116z"/>
    <ellipse class="b" cx="1.361" cy="1.356" rx="1.361" ry="1.356" transform="translate(38.28 137.514)"/>
    <ellipse class="b" cx="1.361" cy="1.356" rx="1.361" ry="1.356" transform="translate(38.28 134.467)"/>
    <path class="b" d="M43.527 144.573h2.6c.333 0-1.044 3.745-1.231 4-2.152 2.918-5.351 2.918-8.577 2.853-2.764-.057-5.527-.126-8.295-.19l-1.128-.03v-2.849l4.789.13.333-4.244h2.729l-.134 4.446c0 .278 3.2.183 3.471.179a6.212 6.212 0 003.394-.724c1.182-.79 1.614-2.302 2.049-3.571zM38.28 152.798h2.722v6.366H38.28zM45.794 163.144v-2.522c-4.3-.152-10.657-1.459-13.233 3.074-1.338 2.362-1.185 5.112-1.147 7.737l13.906.663.065-2.522-11.245-.465a9.515 9.515 0 01.023-2.324 4.942 4.942 0 01.841-2.156c1.12-1.524 2.9-1.57 4.629-1.619 2.232-.068 6.161.134 6.161.134zM31.392 172.691s12.339.8 13.936.6v2.785s-12.832-.381-13.936-.6zM26.297 172.428v2.518l2.6.267v-2.522zM43.799 186.485l-14.907-.93.183 3.71c.115 2.392.034 4.708 1.529 6.724a8.571 8.571 0 005.734 3.428c1.861.2 6.643.381 6.647.381-.13 0-.764.792-.9.891a8.14 8.14 0 01-2.733 1.638c-7.075 2.244-15.2-3.969-14.445-11.2a9.555 9.555 0 015.439-7.844c3.528-1.455 7.985-.994 10.183.267a10.136 10.136 0 013.268 2.933z"/>
    <path class="b" d="M45.328 197.094a10.2 10.2 0 000-7.958l-13.383-.529c-.428 0 .466 4.72.68 5.185a5.941 5.941 0 002.79 2.853 8.3 8.3 0 003.822.423c2.043-.008 4.069.007 6.091.026z"/>
    <ellipse class="c" cx="1.529" cy="1.524" rx="1.529" ry="1.524" transform="translate(36.281 193.117)"/>
    <path class="c" d="M38.131 192.652a.18.18 0 01-.107-.034 1.713 1.713 0 01-.711-1.2 1.927 1.927 0 01.845-1.524.192.192 0 11.248.293 1.573 1.573 0 00-.711 1.208 1.363 1.363 0 00.543.914.186.186 0 01.05.263.191.191 0 01-.157.08z"/>
    <path class="b" d="M81.125 83.896q-1.055 22.857-2.293 45.668c-1.238 23.451-2.385 46.936-4.422 70.33-.642 7.318-1.4 12.826-5.489 19a28.842 28.842 0 01-16.272 11.691s14.372.069 23.42-6.926c1.329-5.545 5.056-139.763 5.056-139.763z"/>
  </g>
</svg>
